<?xml version="1.0" standalone="no"?>
<!DOCTYPE svg PUBLIC "-//W3C//DTD SVG 20010904//EN"
 "http://www.w3.org/TR/2001/REC-SVG-20010904/DTD/svg10.dtd">
<svg version="1.0" xmlns="http://www.w3.org/2000/svg"
 width="983.000000pt" height="983.000000pt" viewBox="0 0 983.000000 983.000000"
 preserveAspectRatio="xMidYMid meet">
<metadata>
Created by potrace 1.14, written by Peter Selinger 2001-2017
</metadata>
<g transform="translate(0.000000,983.000000) scale(0.100000,-0.100000)"
fill="#000000" stroke="none">
<path d="M7570 7475 c-74 -52 -185 -128 -245 -169 -61 -42 -205 -141 -320
-220 -116 -80 -244 -168 -285 -196 -63 -43 -403 -277 -450 -310 -8 -5 -59 -40
-112 -78 -54 -37 -183 -125 -288 -197 -293 -200 -411 -281 -460 -315 -63 -44
-645 -445 -815 -561 -376 -258 -581 -399 -590 -406 -5 -4 -44 -31 -85 -59 -90
-60 -271 -185 -395 -271 -49 -34 -126 -87 -170 -117 -44 -30 -118 -81 -165
-113 -47 -32 -157 -108 -245 -168 -88 -60 -164 -113 -170 -117 -11 -9 -190
-132 -350 -241 -55 -38 -134 -92 -175 -121 -41 -29 -127 -88 -190 -131 -280
-191 -719 -493 -877 -602 -64 -44 -295 -204 -418 -288 -80 -55 -226 -155 -323
-222 -97 -67 -234 -161 -304 -208 -70 -48 -126 -90 -124 -94 2 -3 357 -6 788
-5 l785 1 394 298 c217 165 439 333 494 374 55 42 102 78 105 81 3 3 122 93
265 201 143 108 359 271 480 363 121 92 305 231 409 309 103 78 193 147 200
152 18 16 326 248 350 265 13 8 38 27 57 42 40 32 730 556 839 637 41 30 77
58 80 61 3 3 59 46 125 95 66 50 124 94 130 98 5 4 83 63 172 130 173 131 365
276 643 487 96 73 294 223 440 334 146 110 345 261 443 335 97 73 179 132 180
130 3 -4 50 -120 157 -389 33 -85 65 -164 70 -175 5 -11 82 -202 170 -425 88
-223 165 -414 170 -425 5 -11 18 -42 28 -70 17 -45 249 -625 274 -685 6 -14
45 -110 87 -214 l76 -190 333 1 c183 0 335 3 338 6 4 4 -1 22 -10 41 -9 20
-23 54 -31 76 -8 22 -21 55 -29 73 -8 17 -150 374 -316 792 -165 418 -305 769
-311 780 -5 11 -42 103 -82 205 -235 598 -601 1510 -606 1509 -3 0 -67 -42
-141 -94z"/>
<path d="M6590 5389 c-168 -127 -318 -240 -334 -252 -16 -12 -53 -40 -82 -62
-29 -22 -65 -49 -80 -60 -15 -11 -102 -76 -193 -145 -199 -151 -1562 -1177
-2031 -1530 -113 -85 -209 -158 -215 -163 -5 -4 -62 -46 -125 -93 -63 -47
-135 -105 -159 -127 -146 -137 -177 -345 -76 -502 43 -66 67 -90 129 -130 111
-70 -161 -65 3289 -65 1709 0 3107 3 3107 6 0 6 -316 769 -360 869 -9 22 -32
77 -51 123 -29 72 -36 82 -58 83 -29 0 -2189 0 -2208 -1 -10 0 -13 -32 -13
-125 0 -93 3 -125 13 -126 6 0 384 -1 839 -1 l827 -1 57 -141 c128 -319 142
-356 130 -357 -64 -5 -4821 0 -4851 5 -72 12 -116 62 -101 119 17 69 87 129
517 442 68 50 172 126 231 170 59 44 133 99 165 122 83 60 696 510 708 520 11
9 310 229 473 349 54 38 228 166 387 283 160 118 327 241 373 275 167 123 217
159 221 162 2 2 -4 22 -12 46 -22 61 -116 307 -132 343 -7 17 -25 64 -40 105
-15 41 -30 78 -34 82 -3 3 -143 -97 -311 -223z"/>
</g>
</svg>
